<svg width="80" height="80" viewBox="0 0 80 80" fill="none" xmlns="http://www.w3.org/2000/svg">
<circle opacity="0.35" cx="40" cy="40" r="40" fill="#0FBE98"/>
<path d="M34.6673 51.9997V27.9997L50.6673 39.9997L34.6673 51.9997ZM40.0007 13.333C36.4987 13.333 33.0311 14.0228 29.7958 15.3629C26.5604 16.703 23.6207 18.6673 21.1445 21.1435C16.1435 26.1445 13.334 32.9272 13.334 39.9997C13.334 47.0721 16.1435 53.8549 21.1445 58.8559C23.6207 61.3321 26.5604 63.2963 29.7958 64.6365C33.0311 65.9766 36.4987 66.6663 40.0007 66.6663C47.0731 66.6663 53.8559 63.8568 58.8568 58.8559C63.8578 53.8549 66.6673 47.0721 66.6673 39.9997C66.6673 36.4978 65.9776 33.0301 64.6374 29.7948C63.2973 26.5594 61.3331 23.6197 58.8568 21.1435C56.3806 18.6673 53.4409 16.703 50.2055 15.3629C46.9702 14.0228 43.5026 13.333 40.0007 13.333Z" fill="#0FBE98"/>
<path d="M54.3763 39.9993L34.5987 52.5045L34.556 27.5619L54.3763 39.9993Z" fill="white"/>
</svg>
